PathFileType  4	(X/Y/Z) C:\Users\antoi\Documents\MyRepositories\mobilecap\ResultsAnalysis
DataRate	CameraRate	NumFrames	NumMarkers	Units	OrigDataRate	OrigDataStartFrame	OrigNumFrames
100.0	100.0	6	51	mm	100.0	66	263
Frame#	Time	r_knee			r_shank_antsup			r_ankle			r_calc			r_5meta			r_toe			L_knee			L_shank_antsup			L_ankle			L_calc			L_5meta			L_toe			r_sh2			r_sh3			r_sh4			L_sh2			L_sh3			r_thigh1			r_thigh2			r_thigh3			r_thigh4			r_thigh5			L_thigh1			L_thigh2			L_thigh3			L_thigh4			r.ASIS			r.PSIS			L.ASIS			L.PSIS			C7			R_Shoulder			L_Shoulder			R_Sternum			L_Sternum			R_humerus			R_elbow_med			R_elbow_lat			R_forearm			R_wrist_radius			R_wrist_ulna			L_humerus			L_elbow_med			L_elbow_lat			L_forearm			L_wrist_radius			L_wrist_ulna			R_HJC			L_HJC			R_HJC_reg			L_HJC_reg			
		X1	Y1	Z1	X2	Y2	Z2	X3	Y3	Z3	X4	Y4	Z4	X5	Y5	Z5	X6	Y6	Z6	X7	Y7	Z7	X8	Y8	Z8	X9	Y9	Z9	X10	Y10	Z10	X11	Y11	Z11	X12	Y12	Z12	X13	Y13	Z13	X14	Y14	Z14	X15	Y15	Z15	X16	Y16	Z16	X17	Y17	Z17	X18	Y18	Z18	X19	Y19	Z19	X20	Y20	Z20	X21	Y21	Z21	X22	Y22	Z22	X23	Y23	Z23	X24	Y24	Z24	X25	Y25	Z25	X26	Y26	Z26	X27	Y27	Z27	X28	Y28	Z28	X29	Y29	Z29	X30	Y30	Z30	X31	Y31	Z31	X32	Y32	Z32	X33	Y33	Z33	X34	Y34	Z34	X35	Y35	Z35	X36	Y36	Z36	X37	Y37	Z37	X38	Y38	Z38	X39	Y39	Z39	X40	Y40	Z40	X41	Y41	Z41	X42	Y42	Z42	X43	Y43	Z43	X44	Y44	Z44	X45	Y45	Z45	X46	Y46	Z46	X47	Y47	Z47	X48	Y48	Z48	X49	Y49	Z49	X50	Y50	Z50	X51	Y51	Z51	

66	0.65000000	-1078.73478	778.83711	-454.56267	-1074.45498	693.27586	-441.13029	-1296.27973	405.38674	-456.54617	-1364.06658	354.46728	-500.42164	-1160.94073	348.33323	-416.48748	-1127.57897	370.84934	-478.09971	-1078.25145	786.16593	-718.34137	-1088.41699	671.78251	-740.23395	-1286.67802	409.67143	-737.83011	-1360.51927	360.24752	-702.96158	-1117.23947	369.66352	-717.83367	-1143.48748	346.17265	-781.81758	-1132.22183	595.77333	-436.84681	-1136.87012	731.12508	-419.68821	-1202.46295	635.37874	-416.48117	-1161.61903	722.30661	-754.68089	-1217.03715	615.02892	-760.87296	-1142.81068	1081.47049	-388.67138	-1086.93589	989.93708	-413.14714	-1121.45642	938.07221	-389.20463	-1239.77268	1021.74203	-391.12928	-1172.83188	924.49188	-405.11754	-1144.61633	1100.90097	-733.90400	-1074.83374	981.41143	-729.19513	-1247.89975	1040.88336	-742.32666	-1169.77389	925.15521	-744.83800	-1158.16945	1214.29249	-425.63407	-1320.51278	1330.06463	-496.36296	-1163.45801	1220.29859	-685.71363	-1324.97240	1328.89413	-604.48594	-1009.70588	1743.21665	-553.01605	-969.21656	1656.08168	-377.15065	-950.02331	1657.87032	-702.80603	-920.51946	1600.90386	-516.32025	-918.79718	1599.27528	-570.02556	-1073.04358	1420.81786	-267.64341	-1147.07534	1331.09801	-330.70577	-1119.67360	1341.67365	-248.15676	-1065.59448	1187.37506	-245.76885	-1037.63471	1072.90043	-265.97429	-1068.35506	1078.33978	-232.43446	-1015.51225	1430.19644	-832.30594	-1094.54008	1341.18398	-791.20451	-1059.29572	1348.73211	-854.48591	-1019.35726	1179.18230	-876.14777	-992.64644	1080.91368	-868.15236	-1028.94474	1078.85988	-886.39795	-1266.67217	1175.80795	-431.59901	-1269.53860	1179.34811	-661.92151	-1255.57194	1180.30527	-458.11317	-1262.64870	1178.44778	-629.69130	
67	0.66000000	-1073.39896	776.10657	-454.66965	-1070.02088	690.77073	-441.17352	-1295.58098	405.27570	-456.41922	-1363.71420	354.76579	-500.18553	-1160.60892	347.75811	-416.03524	-1127.17330	370.14501	-477.70983	-1072.59062	783.86989	-717.84718	-1084.06579	669.94906	-740.32829	-1285.76681	410.14466	-737.80308	-1360.14623	360.92156	-702.46984	-1116.55211	368.91166	-717.73034	-1143.03589	345.27364	-781.85874	-1128.51621	593.70075	-436.45669	-1132.07217	729.01958	-419.21484	-1198.32208	633.47480	-416.15402	-1156.82225	721.27914	-753.76312	-1213.80809	614.72064	-760.17360	-1136.90362	1078.83472	-387.81749	-1081.36060	987.16829	-412.29388	-1116.04855	935.04415	-388.74600	-1233.89922	1019.00469	-390.15298	-1167.27724	921.75510	-403.92631	-1140.02099	1097.97961	-733.85646	-1068.91777	978.91166	-728.15480	-1242.91693	1037.60539	-737.75698	-1164.15340	922.95084	-745.75346	-1152.48766	1212.49156	-424.17870	-1315.41872	1327.25481	-495.26016	-1158.37592	1217.92449	-684.26610	-1319.92370	1325.95452	-602.87953	-1008.16397	1742.60281	-551.00661	-967.62248	1656.78949	-375.53533	-947.09720	1658.47158	-699.65980	-917.47399	1601.01780	-513.78641	-915.54323	1599.48802	-567.14213	-1055.79018	1417.91817	-263.68652	-1124.53704	1322.20376	-325.57102	-1095.46836	1334.96739	-243.68982	-1028.53976	1185.44867	-244.35255	-991.69433	1073.48326	-266.45074	-1021.37432	1076.35541	-231.81913	-1001.07850	1430.02939	-831.17940	-1073.63561	1335.78616	-790.47475	-1039.92660	1345.87696	-854.08584	-985.73641	1179.21942	-873.88205	-950.90658	1083.33985	-864.22162	-986.53348	1078.31666	-883.26174	-1260.83972	1173.49158	-429.94041	-1264.08251	1176.50854	-660.26604	-1249.88933	1177.78512	-456.55819	-1257.07179	1175.71196	-628.13425	
68	0.67000000	-1067.98820	773.28116	-454.59347	-1065.52802	688.03926	-441.04302	-1294.93083	405.34782	-456.18835	-1363.51882	355.05673	-499.99054	-1160.39477	347.29149	-415.54734	-1126.96609	369.51931	-477.38613	-1066.73233	781.45408	-717.56933	-1079.65096	668.03770	-740.61492	-1284.86959	410.85918	-737.92074	-1359.61877	361.70155	-702.18945	-1116.01415	368.09053	-717.90777	-1142.77096	344.45234	-782.05055	-1125.01437	591.51247	-436.08042	-1127.25102	726.61647	-418.87721	-1194.35553	632.08720	-415.76995	-1151.86443	720.31814	-753.25505	-1210.48497	614.41336	-759.61605	-1130.50754	1076.05508	-387.13660	-1074.85769	984.81308	-411.74573	-1109.76637	931.02403	-389.13218	-1227.76898	1016.44071	-389.23150	-1162.05684	919.59091	-401.24927	-1133.86757	1095.51607	-732.40453	-1062.77015	976.22455	-727.59339	-1237.05258	1034.75599	-735.08125	-1158.16198	920.29782	-743.92353	-1146.39126	1210.70637	-422.85353	-1309.84573	1324.44169	-494.36573	-1152.59577	1215.76824	-683.09129	-1314.38143	1323.07593	-601.43773	-1007.02479	1742.56269	-548.78509	-966.36025	1658.24695	-373.92619	-944.45294	1659.94168	-696.68746	-914.58938	1601.98120	-511.12390	-912.54218	1600.49181	-564.84470	-1038.11382	1416.78076	-259.96693	-1100.62998	1315.20747	-320.15776	-1070.23853	1330.62642	-238.99050	-990.24882	1187.55757	-242.91346	-944.37152	1079.05320	-266.99266	-972.80481	1079.41487	-231.25561	-986.92667	1431.32184	-830.41606	-1053.77792	1331.55009	-791.81939	-1020.37384	1344.87491	-854.34026	-950.98164	1182.60659	-872.20964	-907.60576	1090.43980	-860.89055	-942.19480	1082.08838	-880.43725	-1254.52841	1171.12966	-428.58370	-1257.96498	1173.82444	-658.91033	-1243.68054	1175.28685	-455.18839	-1250.95272	1173.09737	-626.85862	
69	0.68000000	-1062.73079	770.33813	-454.12334	-1061.10591	685.12060	-440.75458	-1294.25028	405.37672	-455.86282	-1363.33800	355.38946	-499.72531	-1160.32175	346.82101	-415.18213	-1126.82317	368.89268	-477.03769	-1060.66885	778.96310	-717.77540	-1075.23969	666.02875	-740.83292	-1283.99886	411.63374	-737.95542	-1359.05980	362.66684	-702.06245	-1115.63549	367.38547	-718.26659	-1142.59616	343.62059	-782.27623	-1121.74663	589.26035	-435.60332	-1122.54500	724.35882	-418.53597	-1190.75923	631.07610	-415.37490	-1146.76011	719.39796	-753.23815	-1206.84543	614.26867	-759.32791	-1123.88187	1073.06338	-386.18423	-1068.22960	982.39355	-410.87107	-1103.35872	927.03113	-389.52381	-1221.43893	1014.07157	-388.38606	-1156.56014	917.22728	-399.30774	-1126.98087	1093.14080	-730.92792	-1056.12460	973.60756	-727.13664	-1230.37675	1032.42865	-734.31340	-1151.93678	917.51335	-741.34004	-1139.76364	1208.82408	-421.82687	-1303.79371	1321.73208	-493.28063	-1146.16452	1213.91203	-682.30211	-1308.31278	1320.37006	-600.14142	-1006.36756	1743.10018	-546.47136	-965.33873	1660.52347	-372.40548	-942.05330	1662.21891	-693.66729	-912.04918	1604.17275	-508.09774	-909.65611	1602.28640	-563.02452	-1019.96483	1417.53639	-256.63100	-1075.28686	1310.83544	-314.79687	-1044.25270	1328.96299	-234.19260	-951.32068	1193.90190	-241.42400	-896.45797	1090.01176	-267.65970	-923.56861	1087.64319	-231.15128	-972.84487	1434.35677	-830.17367	-1034.06099	1328.94240	-794.18277	-1000.50635	1345.87041	-855.43699	-915.21674	1189.88732	-870.86301	-863.15372	1102.69968	-857.73910	-896.31117	1090.89233	-877.77489	-1247.64934	1168.67028	-427.55938	-1251.30634	1171.45504	-657.88104	-1236.98052	1172.84462	-454.20774	-1244.24711	1170.65414	-626.03856	
70	0.69000000	-1057.63942	767.24623	-453.66089	-1056.77310	682.18384	-440.43221	-1293.58561	405.20030	-455.53263	-1363.11870	355.80058	-499.38376	-1160.35140	346.27600	-414.92771	-1126.64568	368.24509	-476.61800	-1054.37975	776.52572	-718.16811	-1070.62362	664.14854	-741.08672	-1282.94165	412.62831	-737.92394	-1358.59484	364.17193	-701.92750	-1115.34198	366.76595	-718.56549	-1142.31962	342.77651	-782.52599	-1118.52104	586.95643	-435.06982	-1117.92259	722.56953	-418.04585	-1187.31223	629.72587	-414.93635	-1141.38842	718.52606	-753.39283	-1202.84194	614.35659	-759.30311	-1117.09842	1070.10629	-384.78831	-1062.73182	978.89432	-409.17792	-1097.38678	923.73082	-389.12681	-1214.96848	1011.90615	-387.63159	-1150.69366	914.47806	-398.57618	-1119.68109	1090.84335	-729.89786	-1049.06996	971.30712	-726.71669	-1223.15723	1030.37884	-733.68123	-1145.20981	915.18848	-740.21509	-1132.57862	1207.03901	-420.74522	-1297.25198	1319.28717	-491.99118	-1139.07329	1212.45008	-681.27210	-1301.75354	1317.91745	-598.84980	-1006.03393	1744.17873	-544.28641	-964.28271	1663.77521	-370.98515	-939.00115	1665.96215	-691.87697	-909.59939	1607.33213	-504.90036	-906.71448	1604.89332	-561.02566	-1001.33595	1420.46397	-253.31037	-1048.70385	1309.61250	-309.57802	-1017.85488	1330.23535	-229.33953	-912.44872	1204.64457	-239.91539	-848.71541	1106.46551	-268.37711	-874.38539	1101.27688	-231.51988	-958.61613	1439.24294	-830.41340	-1013.33578	1328.89028	-796.70386	-980.21296	1349.09902	-857.45928	-878.84322	1201.64842	-869.56109	-817.99231	1120.67598	-854.54608	-849.43351	1105.39149	-875.08706	-1240.26214	1166.35939	-426.50393	-1244.01427	1169.42325	-656.82084	-1229.68906	1170.76200	-453.14452	-1236.92960	1168.55847	-625.01656	
71	0.70000000	-1052.49805	764.18598	-453.25048	-1052.48654	679.29790	-440.10060	-1293.01031	404.99535	-455.13608	-1362.89087	356.31208	-499.01838	-1160.37306	345.67649	-414.58275	-1126.48125	367.58782	-476.18564	-1047.73252	774.43153	-718.42740	-1065.49583	662.72326	-741.61433	-1281.50167	414.24936	-737.92552	-1358.09196	366.71183	-701.85539	-1115.05331	366.10819	-718.72170	-1141.91739	342.07288	-782.79347	-1115.19063	584.60705	-434.63845	-1113.17933	720.72596	-417.54999	-1183.63641	627.98167	-414.38639	-1135.50143	717.98871	-753.60273	-1198.50551	614.77493	-759.46231	-1110.03202	1067.11077	-383.34411	-1057.84379	974.48456	-407.19749	-1091.53862	920.66291	-388.33034	-1208.32978	1009.90398	-387.10184	-1144.73409	911.88584	-398.03221	-1111.92823	1088.91650	-729.01460	-1041.98421	969.32017	-726.65024	-1215.42285	1028.66134	-732.75707	-1137.88165	913.31423	-739.96450	-1124.94601	1205.66156	-419.36691	-1290.20534	1317.08135	-490.78123	-1131.42231	1211.36578	-679.70687	-1294.73946	1315.75947	-597.48792	-1005.83674	1745.80513	-542.15648	-962.96585	1667.91392	-369.73909	-935.40145	1671.03013	-691.11281	-906.71827	1610.75009	-502.07408	-903.59756	1608.42491	-558.39670	-982.28089	1425.72028	-249.72966	-1021.74959	1311.22409	-303.99513	-991.22611	1334.55531	-224.30938	-874.20163	1219.76849	-238.59489	-802.08207	1128.27618	-269.43234	-825.84355	1120.82770	-231.67336	-944.20917	1445.88541	-830.89125	-991.96199	1331.29117	-799.71273	-959.45313	1354.78895	-860.26923	-842.50344	1218.16995	-868.28283	-773.08432	1144.71163	-851.36611	-802.48751	1125.97953	-872.29870	-1232.45341	1164.42980	-425.21769	-1236.05709	1167.65302	-655.53517	-1221.77016	1169.02517	-451.71919	-1229.06852	1166.89911	-623.47053	
